<svg width="150" height="50" viewBox="0 0 150 50" fill="none" xmlns="http://www.w3.org/2000/svg">
<path d="M74.2477 42.3357C73.7404 42.3702 73.1913 42.3619 72.6003 42.3095C72.0081 42.2571 71.7126 41.8347 71.7126 41.0409V33.4277H72.5429C72.7427 33.4277 72.9197 33.5146 73.0729 33.6872C73.226 33.8597 73.3038 34.0668 73.3038 34.3084V35.4735H74.2489V35.8365C74.2489 36.096 74.1723 36.3066 74.018 36.4708C73.8636 36.6351 73.6794 36.7172 73.4653 36.7172H73.3038V40.5493C73.3038 40.8433 73.4569 40.9897 73.7644 40.9897H74.2489V42.3369L74.2477 42.3357Z" fill="white"/>
<path d="M74.3853 42.3356V38.995C74.3853 38.3214 74.4738 37.7561 74.6508 37.2991C74.8267 36.8421 75.0696 36.4743 75.377 36.1982C75.6689 35.9388 76.0111 35.7496 76.4023 35.6282C76.7935 35.508 77.1978 35.4473 77.6118 35.4473H77.8426V37.286H77.3127C76.8664 37.286 76.5362 37.4074 76.3221 37.649C76.1068 37.8906 75.9991 38.2702 75.9991 38.7879V42.3356H74.3853Z" fill="white"/>
<path d="M81.922 42.0513C81.599 42.2417 81.2569 42.3572 80.8968 42.4012C80.5355 42.4441 80.2172 42.4655 79.9409 42.4655C79.3882 42.4655 78.9037 42.2977 78.4885 41.9609C78.0734 41.6241 77.8665 41.0671 77.8665 40.2911C77.8665 39.5664 78.0543 39.0487 78.4311 38.7369C78.808 38.4262 79.2877 38.2192 79.8715 38.1156C79.9481 38.1156 80.0402 38.1025 80.1479 38.0764C80.2555 38.0502 80.3788 38.0288 80.5163 38.0121C81.1923 37.9085 81.5308 37.6848 81.5308 37.3385C81.5308 37.079 81.4112 36.9112 81.1731 36.8339C80.935 36.7565 80.7161 36.7173 80.5163 36.7173C80.301 36.7173 80.1096 36.7518 79.9397 36.8208C79.7698 36.8898 79.6478 37.0195 79.5712 37.2088H78.0268C78.0878 36.6744 78.3031 36.2341 78.6716 35.8877C79.0867 35.4902 79.6777 35.2915 80.4457 35.2915C81.3059 35.2915 81.9519 35.4557 82.3814 35.783C82.8264 36.1282 83.0502 36.6113 83.0502 37.2338V39.5902C83.0502 40.2804 82.9389 40.8207 82.7164 41.2087C82.4939 41.5967 82.2283 41.8776 81.9208 42.0501L81.922 42.0513ZM81.5523 38.8654C81.337 38.9868 81.0379 39.0987 80.6539 39.2022L80.1239 39.3319C79.8476 39.4188 79.6478 39.5307 79.5246 39.6687C79.4169 39.8591 79.3631 40.0484 79.3631 40.2388C79.3631 40.4982 79.4324 40.7053 79.57 40.86C79.7088 40.9981 79.9074 41.0671 80.1694 41.0671C80.5989 41.0671 80.9374 40.929 81.1839 40.6529C81.4291 40.3768 81.5523 39.9972 81.5523 39.514V38.8666V38.8654Z" fill="white"/>
<path d="M87.0616 42.3356H85.4251L83.2812 35.4473H84.9872L86.2087 40.2898L87.2913 36.0685C87.4146 35.6543 87.6598 35.4473 88.0295 35.4473H89.2282L87.0616 42.3356Z" fill="white"/>
<path d="M93.7682 40.2127H94.9203C94.7504 40.9374 94.4286 41.4908 93.9524 41.8705C93.4763 42.268 92.8769 42.4667 92.1543 42.4667C91.2786 42.4667 90.5943 42.1478 90.1026 41.5087C89.6109 40.8875 89.3645 39.9984 89.3645 38.8417C89.3645 37.6849 89.6026 36.8732 90.0787 36.252C90.5704 35.6129 91.2535 35.2939 92.1304 35.2939C93.0528 35.2939 93.767 35.6046 94.2742 36.2258C94.7659 36.8649 95.0124 37.7539 95.0124 38.8928V39.1773C95.0124 39.2641 95.004 39.3236 94.9896 39.3582H91.0023C91.0178 39.8937 91.1327 40.29 91.348 40.5495C91.5478 40.8256 91.8469 40.9636 92.2465 40.9636C92.5073 40.9636 92.731 40.9029 92.9152 40.7827C92.9607 40.7661 93.0037 40.7351 93.042 40.6923C93.0803 40.6494 93.1222 40.6018 93.1688 40.5495C93.1844 40.4971 93.2418 40.4293 93.3411 40.3424C93.4404 40.2567 93.5828 40.2127 93.767 40.2127H93.7682ZM91.0023 38.1919H93.3531C93.322 37.7253 93.2143 37.3802 93.0301 37.1565C92.8303 36.9149 92.5455 36.7935 92.1771 36.7935C91.8385 36.7935 91.5622 36.9149 91.348 37.1565C91.1327 37.3981 91.0178 37.7432 91.0023 38.1919Z" fill="white"/>
<path d="M95.3354 33.4277H96.1657C96.381 33.4277 96.5653 33.5099 96.7184 33.6741C96.8715 33.8383 96.9493 34.0406 96.9493 34.2822V42.3357H95.3354V33.4277Z" fill="white"/>
<path d="M3.45725 45.2978V48.7705H2.70595V45.2978H1.35889V44.7812H4.80312V45.2978H3.45605H3.45725Z" fill="white"/>
<path d="M8.80364 47.4935H8.12173V48.7693H7.37402V44.7812H9.01299C9.47717 44.8241 9.86957 44.9562 10.1902 45.1776C10.573 45.4429 10.7644 45.7631 10.7644 46.1344C10.7644 46.5057 10.573 46.8306 10.1902 47.0972C9.92579 47.2805 9.72361 47.3828 9.58364 47.4066L10.8649 48.7705H9.95929L8.80364 47.4947V47.4935ZM8.12173 45.3001V46.9758H8.80364C9.13622 46.9758 9.42094 46.8937 9.65782 46.7306C9.89469 46.5664 10.0131 46.3689 10.0131 46.1356C10.0131 45.9023 9.89469 45.7072 9.65782 45.5453C9.42094 45.3823 9.13622 45.3013 8.80364 45.3013H8.12173V45.3001Z" fill="white"/>
<path d="M15.5952 44.7827L17.6959 48.7708H16.9016L16.1575 47.3593H14.6273L13.8868 48.7708H13.0889L15.1896 44.7827H15.594H15.5952ZM15.8871 46.844L15.393 45.9086L14.9025 46.844H15.8883H15.8871Z" fill="white"/>
<path d="M21.8042 48.7708L19.707 44.7827H20.5014L22.0064 47.6425L23.5149 44.7827H24.3129L22.2086 48.7708H21.8042Z" fill="white"/>
<path d="M29.9954 44.7827V45.2992H27.6303V46.5179H29.9954V47.0344H27.6303V48.2531H29.9954V48.772H26.8838V44.7839H29.9954V44.7827Z" fill="white"/>
<path d="M32.8367 48.7708V44.7827H33.5844V48.2531H35.6492V48.772H32.8367V48.7708Z" fill="white"/>
<path d="M44.4148 45.2978V48.7705H43.6635V45.2978H42.3164V44.7812H45.7606V45.2978H44.4136H44.4148Z" fill="white"/>
<path d="M49.0792 47.1201V48.7708H48.3315V44.7827H49.0792V46.6048H50.863V44.7827H51.6107V48.7708H50.863V47.1201H49.0792Z" fill="white"/>
<path d="M57.6534 44.7827V45.2992H55.2883V46.5179H57.6534V47.0344H55.2883V48.2531H57.6534V48.772H54.5417V44.7839H57.6534V44.7827Z" fill="white"/>
<path d="M66.9344 48.0258V44.7827H67.6821V48.0258C67.706 48.0543 67.7467 48.0888 67.8053 48.1305C67.9621 48.234 68.1475 48.2852 68.3616 48.2852C68.5758 48.2852 68.7612 48.2328 68.9179 48.1269C69.0746 48.021 69.1524 47.8948 69.1524 47.7473V44.7839H69.9037V47.7675C69.8941 48.0484 69.7434 48.2888 69.4527 48.4899C69.1512 48.6994 68.7887 48.8041 68.3628 48.8041C67.9369 48.8041 67.5888 48.7006 67.3124 48.4947C67.0337 48.7006 66.682 48.8041 66.2585 48.8041C65.835 48.8041 65.4701 48.6994 65.1722 48.4899C64.8779 48.29 64.7284 48.0496 64.7212 47.7675V44.7839H65.4689V47.7473C65.4689 47.8948 65.5467 48.0222 65.7034 48.1269C65.8601 48.2328 66.0455 48.2852 66.2597 48.2852C66.4738 48.2852 66.6616 48.234 66.816 48.1305C66.8758 48.0888 66.9176 48.0543 66.9392 48.0258H66.9344Z" fill="white"/>
<path d="M77.6284 45.3276C78.2062 45.7263 78.4945 46.2071 78.4945 46.7712C78.4945 47.3353 78.2062 47.8161 77.6284 48.2148C77.0506 48.6135 76.3543 48.8135 75.5384 48.8135C74.7225 48.8135 74.0262 48.6135 73.4484 48.2148C72.8706 47.8161 72.5823 47.3353 72.5823 46.7712C72.5823 46.2071 72.8706 45.7263 73.4484 45.3276C74.0262 44.9289 74.7225 44.729 75.5384 44.729C76.3543 44.729 77.0506 44.9289 77.6284 45.3276ZM75.5372 45.2503C74.9283 45.2503 74.4091 45.399 73.9796 45.6954C73.5501 45.9917 73.3348 46.3511 73.3348 46.7712C73.3348 47.1913 73.5501 47.5507 73.9808 47.8483C74.4115 48.1458 74.9307 48.2946 75.5372 48.2946C76.1437 48.2946 76.6653 48.1458 77.0948 47.8483C77.5243 47.5507 77.7397 47.1913 77.7397 46.7712C77.7397 46.3511 77.5243 45.9917 77.0948 45.6954C76.6653 45.399 76.1461 45.2503 75.5372 45.2503Z" fill="white"/>
<path d="M82.7692 47.4935H82.0873V48.7693H81.3396V44.7812H82.9786C83.4427 44.8241 83.8351 44.9562 84.1558 45.1776C84.5386 45.4429 84.73 45.7631 84.73 46.1344C84.73 46.5057 84.5386 46.8306 84.1558 47.0972C83.8914 47.2805 83.6892 47.3828 83.5492 47.4066L84.8305 48.7705H83.9237L82.768 47.4947L82.7692 47.4935ZM82.0861 45.3001V46.9758H82.768C83.1006 46.9758 83.3853 46.8937 83.6222 46.7306C83.8591 46.5664 83.9775 46.3689 83.9775 46.1356C83.9775 45.9023 83.8591 45.7072 83.6222 45.5453C83.3853 45.3823 83.1006 45.3013 82.768 45.3013H82.0861V45.3001Z" fill="white"/>
<path d="M87.4146 48.7708V44.7827H88.1623V48.2531H90.2271V48.772H87.4146V48.7708Z" fill="white"/>
<path d="M93.4905 44.7827C94.4296 44.7863 95.1606 44.9696 95.6858 45.3337C96.2612 45.7348 96.5483 46.2156 96.5483 46.7773C96.5483 47.3391 96.2612 47.8222 95.6858 48.2209C95.1606 48.5851 94.4296 48.7684 93.4905 48.772H92.9414V44.7839H93.4905V44.7827ZM93.6891 45.3076V48.2471C94.2837 48.2471 94.7706 48.115 95.151 47.8508C95.5793 47.5545 95.7935 47.1974 95.7935 46.7761C95.7935 46.3548 95.5793 45.999 95.151 45.7015C94.7706 45.4385 94.2837 45.3076 93.6891 45.3076Z" fill="white"/>
<path d="M16.4148 19.964C20.1031 19.6034 22.0292 19.169 22.0292 19.169C24.1694 18.6858 26.117 18.2169 27.8457 17.7825C20.8735 12.2985 13.9025 6.81449 6.9315 1.33166C6.24959 0.794921 5.31645 0.702092 4.54004 1.09364L1.02881 2.86571L11.1557 17.385C11.3591 17.7635 12.0984 19.0298 13.6848 19.6736C14.7591 20.1092 15.7341 20.0294 16.4112 19.9628L16.4148 19.964Z" fill="white"/>
<path d="M16.4148 19.964C17.0692 19.8997 17.5693 19.8759 17.7368 19.8521C20.1211 19.5118 27.4701 17.867 27.8458 17.7825C28.1903 17.7052 24.3453 18.4918 19.8459 17.5624C14.2327 16.402 10.3973 12.8507 7.08465 9.78263C5.40979 8.23192 3.22171 5.96119 1.03003 2.86572C4.40607 7.70589 7.78211 12.5461 11.157 17.385C11.3603 17.7635 12.0997 19.0298 13.686 19.6736C14.7603 20.1092 15.7353 20.0295 16.4124 19.9628L16.4148 19.964Z" fill="url(#paint0_linear_199_848)" style="mix-blend-mode:multiply"/>
<path d="M67.7637 5.95032C67.9049 6.11813 67.8068 6.37995 67.5879 6.40732C67.5867 6.40732 67.5855 6.40732 67.5843 6.40732C66.3078 6.55371 60.7664 7.19636 58.814 7.5296C51.7102 8.74113 47.8831 11.2939 35.2678 15.3046C32.9733 16.0341 30.7086 16.8708 29.5996 17.223C31.2087 16.3519 34.2797 14.6929 37.5121 12.8149C46.2083 7.76405 52.6002 3.12144 58.0651 2.87984C61.3514 2.73465 64.1795 3.75695 64.1795 3.75695C64.6293 3.90691 65.139 4.1128 65.6809 4.39485C66.0817 4.60431 66.4358 4.8221 66.7433 5.03275C66.9861 5.20055 67.2589 5.41596 67.5316 5.69207C67.5962 5.75752 67.68 5.85273 67.7637 5.95151V5.95032Z" fill="white"/>
<path d="M86.3139 18.7903C86.3581 18.801 86.7302 18.6975 86.7828 18.544C86.7912 18.5178 86.796 18.4892 86.796 18.4892C86.8139 18.3726 86.7685 18.2798 86.7505 18.2429C86.3665 17.455 85.7253 16.7814 85.7253 16.7814C85.102 16.1269 85.1008 16.0614 84.816 15.7793C82.9534 13.9359 79.484 12.5934 79.484 12.5934C78.4133 12.0841 76.4322 11.4807 73.5909 11.0879C69.4229 10.5107 66.1091 10.9249 64.8362 11.1022C57.2143 12.1638 48.8903 15.0379 46.2703 15.9293C32.9013 20.4779 26.0404 22.7569 17.3849 23.0521C12.4608 23.2199 8.40409 22.7177 5.74585 22.2666C6.58926 22.6891 7.80354 23.2401 9.31809 23.7376C10.2656 24.0482 13.3413 24.9967 18.4604 25.0824C19.4307 25.0991 22.2516 25.1134 26.9831 24.4029C31.0159 23.7971 33.7089 23.0747 40.364 21.2967C40.364 21.2967 45.4365 19.9304 49.7684 18.9081C50.2996 18.7832 50.8319 18.6618 50.8319 18.6618C50.8319 18.6618 50.9528 18.638 51.0724 18.607C55.037 17.6026 62.8538 16.0126 71.6277 16.2078C75.1629 16.2863 80.1994 17.3705 86.3127 18.7891L86.3139 18.7903Z" fill="url(#paint1_linear_199_848)" style="mix-blend-mode:multiply"/>
<path d="M96.8094 30.2083C97.1779 30.8379 96.5235 31.5674 95.8535 31.2735C90.7368 29.0241 84.5721 26.7487 77.4468 24.9421C69.0581 22.8142 61.5129 21.8871 55.3147 21.5288C65.7216 19.8282 74.0863 20.3245 79.6157 21.0564C87.1957 22.0608 91.1089 23.727 94.0842 26.6808C95.2733 27.8614 96.155 29.0908 96.8082 30.2071L96.8094 30.2083Z" fill="white"/>
<path d="M96.679 31.1308C96.6084 31.2867 96.3607 31.3284 96.1657 31.3403C95.8415 31.2094 94.6907 30.7452 94.3605 30.6119C92.8029 29.9835 92.024 29.6694 91.6951 29.5384C89.958 28.8482 88.5667 28.3507 87.868 28.1044C85.2624 27.188 83.2597 26.5739 82.8434 26.4465C80.5596 25.7503 78.673 25.2505 77.4468 24.9399C75.4692 24.4388 71.3503 23.4534 66.0577 22.6584C64.6831 22.4525 62.7295 22.1622 60.161 21.9218C58.2325 21.7409 55.3135 21.529 55.3135 21.5278C55.3841 21.5314 64.4152 21.704 69.1311 21.9218C74.4727 22.1693 77.1441 22.2859 80.2629 22.925C85.1368 23.9247 88.2221 25.3469 89.4077 25.9265C92.8842 27.6248 97.0163 30.3775 96.6766 31.1296L96.679 31.1308Z" fill="url(#paint2_linear_199_848)" style="mix-blend-mode:multiply"/>
<path d="M62.3766 7.03332C61.2867 7.1202 59.6394 7.29872 57.6666 7.69978C55.335 8.17464 53.446 8.77921 49.1918 10.3359C44.5872 12.0199 45.4461 11.8068 42.2771 12.9398C37.9475 14.487 37.4427 14.4929 31.8929 16.4578C30.3915 16.9898 29.6199 17.2742 29.5984 17.223C29.5421 17.0874 34.7091 15.0285 41.2674 11.9996C51.1108 7.45224 53.4496 5.63257 58.7577 5.05656C61.6373 4.74356 64.0203 4.94707 65.4847 5.13986C67.4155 5.77419 67.8498 6.03601 67.8271 6.15145C67.8247 6.16455 67.796 6.28118 67.6967 6.35496C67.6357 6.40019 67.5711 6.41209 67.5471 6.41685C67.388 6.44422 65.2693 6.69652 62.3754 7.03332H62.3766Z" fill="url(#paint3_linear_199_848)" style="mix-blend-mode:multiply"/>
<path d="M8.4914 29.6943H11.3411V42.0072H8.25573L4.20854 34.8273V42.0072H1.35889V29.7277H4.46217L8.4926 36.8909V29.6943H8.4914Z" fill="white"/>
<path d="M20.6666 32.5292H15.5738V34.3917H19.7047V37.2265H15.5738V39.1724H20.6666V42.0072H12.7241V29.711L20.6666 29.6943V32.5292Z" fill="white"/>
<path d="M34.2735 29.6099H37.2583L33.5988 42.006H30.7826L29.1472 35.8329L27.7308 42.006H24.8979L20.7837 29.6099H23.7853L26.0786 36.4708L27.647 29.6099H30.4464L32.2673 36.4375L34.2735 29.6099Z" fill="white"/>
<path d="M40.4454 42.0058H37.5957V29.6763H40.4454V42.0058Z" fill="white"/>
<path d="M48.792 34.5915C49.3208 34.9831 49.736 35.4556 50.0398 36.009C50.3437 36.5624 50.4956 37.1634 50.4956 37.812C50.4956 38.3939 50.3712 38.939 50.1248 39.4472C49.8771 39.9565 49.5374 40.4005 49.1043 40.7813C48.6712 41.1621 48.1688 41.4608 47.5945 41.6786C47.0215 41.8964 46.4078 42.0059 45.757 42.0059H42.1321V29.6431L45.4208 29.6597C45.9376 29.6597 46.4269 29.749 46.8875 29.9275C47.3481 30.106 47.7524 30.35 48.1018 30.657C48.4499 30.9641 48.7227 31.3223 48.9201 31.7305C49.1163 32.1387 49.2156 32.5779 49.2156 33.0468C49.2156 33.6061 49.0744 34.1203 48.7944 34.5903L48.792 34.5915ZM44.9817 32.4779V33.618H45.4375C45.7187 33.6073 45.9436 33.5383 46.1123 33.4133C46.281 33.2884 46.3647 33.1634 46.3647 33.0384C46.3647 32.9254 46.281 32.8028 46.1123 32.6719C45.9436 32.541 45.7127 32.4755 45.4208 32.4755H44.9829L44.9817 32.4779ZM45.757 39.1711C46.0046 39.1711 46.2427 39.1342 46.4736 39.0616C46.7033 38.989 46.9066 38.8902 47.0801 38.7664C47.2548 38.6427 47.3923 38.4987 47.4928 38.3356C47.5945 38.1726 47.6448 38.0012 47.6448 37.8203C47.6448 37.6394 47.5945 37.4656 47.4928 37.2967C47.3911 37.1277 47.2536 36.9813 47.0801 36.8575C46.9054 36.7337 46.7033 36.6349 46.4736 36.5624C46.2427 36.4898 46.0046 36.4529 45.757 36.4529H44.9817V39.1699H45.757V39.1711Z" fill="white"/>
<path d="M59.2803 32.5292H54.1875V34.3917H58.3185V37.2265H54.1875V39.1724H59.2803V42.0072H51.3379V29.711L59.2803 29.6943V32.5292Z" fill="white"/>
<path d="M64.4904 38.8187C64.3444 38.8413 64.1973 38.858 64.0513 38.8687C63.9054 38.8794 63.7534 38.8913 63.5955 38.902V42.0058H60.7458V29.7441H63.5955C64.3037 29.7549 64.9665 29.8834 65.585 30.1297C66.2035 30.3761 66.7454 30.7046 67.212 31.1175C67.6786 31.5305 68.0435 32.0113 68.3078 32.5587C68.5722 33.1062 68.7038 33.6917 68.7038 34.3177C68.7038 34.977 68.5627 35.5876 68.2827 36.1529C68.0016 36.717 67.608 37.2049 67.102 37.6191L69.8332 42.0082H66.4775L64.488 38.8211L64.4904 38.8187ZM63.5967 36.0517C63.9006 36.041 64.1901 35.9874 64.4652 35.8922C64.7404 35.797 64.9821 35.6721 65.1902 35.515C65.3984 35.3591 65.5611 35.177 65.6795 34.9699C65.798 34.7628 65.8566 34.5427 65.8566 34.307C65.8566 34.0714 65.798 33.8536 65.6795 33.6525C65.5611 33.4513 65.3984 33.2728 65.1902 33.1157C64.9821 32.9586 64.7404 32.8337 64.4652 32.7385C64.1901 32.6432 63.9006 32.5909 63.5967 32.579V36.0517Z" fill="white"/>
<path d="M86.796 18.4896C86.7744 18.5324 86.7409 18.5884 86.6871 18.6395C86.5459 18.774 86.3713 18.7883 86.3139 18.7907C84.8627 18.4444 83.3793 18.1076 81.8623 17.7838C80.5212 17.497 79.2005 17.2293 77.9001 16.9781C77.4347 16.8806 76.7552 16.7473 75.9285 16.6199C75.9285 16.6199 73.567 16.3248 71.1205 16.182C63.33 15.7273 52.7257 17.985 36.6853 22.2467C35.7079 22.5062 29.6401 24.2604 23.1441 24.8959C22.1703 24.9911 19.3158 25.2446 15.6598 24.9412C12.8532 24.7091 11.164 24.2795 10.7429 24.17C8.62422 23.6178 6.9338 22.8739 5.74585 22.2658C8.19234 22.887 11.8579 23.6404 16.3453 23.8665C26.8467 24.3937 46.2739 17.9386 46.2739 17.9386C51.3451 16.2486 63.2259 12.0618 71.6457 12.9663C72.6255 13.071 73.5813 13.2317 73.5813 13.2317C79.5809 14.2397 84.0289 16.6497 86.7984 18.4872L86.796 18.4896Z" fill="url(#paint4_linear_199_848)" style="mix-blend-mode:multiply"/>
<defs>
<linearGradient id="paint0_linear_199_848" x1="2.79701" y1="1.10793" x2="23.601" y2="22.0207" gradientUnits="userSpaceOnUse">
<stop stop-color="white"/>
<stop offset="1" stop-color="white"/>
</linearGradient>
<linearGradient id="paint1_linear_199_848" x1="5.74585" y1="17.9394" x2="86.8008" y2="17.9394" gradientUnits="userSpaceOnUse">
<stop stop-color="white"/>
<stop offset="1" stop-color="white"/>
</linearGradient>
<linearGradient id="paint2_linear_199_848" x1="76.0064" y1="21.5278" x2="76.0064" y2="31.3403" gradientUnits="userSpaceOnUse">
<stop stop-color="white"/>
<stop offset="1" stop-color="white"/>
</linearGradient>
<linearGradient id="paint3_linear_199_848" x1="48.7145" y1="4.89351" x2="48.7145" y2="17.229" gradientUnits="userSpaceOnUse">
<stop stop-color="white"/>
<stop offset="1" stop-color="white"/>
</linearGradient>
<linearGradient id="paint4_linear_199_848" x1="46.2722" y1="12.8416" x2="46.2722" y2="25.0869" gradientUnits="userSpaceOnUse">
<stop stop-color="white"/>
<stop offset="1" stop-color="white"/>
</linearGradient>
</defs>
</svg>
