<svg width="150" height="75" viewBox="0 0 150 75" fill="none" xmlns="http://www.w3.org/2000/svg">
<path d="M111.372 63.5036C110.611 63.5553 109.787 63.5428 108.901 63.4643C108.012 63.3857 107.569 62.752 107.569 61.5613V50.1416H108.814C109.114 50.1416 109.38 50.2719 109.609 50.5308C109.839 50.7896 109.956 51.1003 109.956 51.4627V53.2103H111.373V53.7548C111.373 54.144 111.259 54.4599 111.027 54.7063C110.796 54.9526 110.519 55.0758 110.198 55.0758H109.956V60.824C109.956 61.265 110.185 61.4846 110.647 61.4846H111.373V63.5054L111.372 63.5036Z" fill="#00ADEE"/>
<path d="M111.578 63.5036V58.4926C111.578 57.4822 111.711 56.6343 111.976 55.9488C112.24 55.2633 112.604 54.7116 113.066 54.2975C113.503 53.9083 114.017 53.6245 114.603 53.4424C115.19 53.2621 115.797 53.1711 116.418 53.1711H116.764V55.9291H115.969C115.3 55.9291 114.804 56.1112 114.483 56.4736C114.16 56.836 113.999 57.4055 113.999 58.182V63.5036H111.578Z" fill="#00ADEE"/>
<path d="M122.883 63.0769C122.399 63.3625 121.886 63.5357 121.346 63.6017C120.804 63.666 120.326 63.6981 119.912 63.6981C119.083 63.6981 118.356 63.4464 117.733 62.9412C117.11 62.436 116.8 61.6006 116.8 60.4367C116.8 59.3495 117.082 58.5729 117.647 58.1052C118.212 57.6393 118.932 57.3287 119.808 57.1734C119.922 57.1734 120.061 57.1537 120.222 57.1145C120.384 57.0752 120.568 57.0431 120.775 57.0181C121.789 56.8628 122.297 56.5272 122.297 56.0077C122.297 55.6185 122.117 55.3668 121.76 55.2508C121.403 55.1347 121.075 55.0758 120.775 55.0758C120.452 55.0758 120.165 55.1276 119.91 55.2311C119.655 55.3347 119.472 55.5292 119.357 55.8131H117.041C117.132 55.0116 117.455 54.351 118.008 53.8316C118.63 53.2353 119.517 52.9372 120.669 52.9372C121.959 52.9372 122.928 53.1835 123.572 53.6745C124.24 54.1922 124.576 54.9169 124.576 55.8506V59.3852C124.576 60.4206 124.409 61.2311 124.075 61.813C123.741 62.395 123.343 62.8163 122.882 63.0751L122.883 63.0769ZM122.329 58.298C122.006 58.4801 121.557 58.6479 120.981 58.8032L120.186 58.9978C119.772 59.1281 119.472 59.2959 119.287 59.503C119.126 59.7886 119.045 60.0725 119.045 60.3581C119.045 60.7473 119.149 61.0579 119.355 61.29C119.564 61.497 119.861 61.6006 120.254 61.6006C120.899 61.6006 121.407 61.3935 121.776 60.9793C122.144 60.5652 122.329 59.9957 122.329 59.2709V58.2998V58.298Z" fill="#00ADEE"/>
<path d="M130.592 63.5036H128.138L124.922 53.1711H127.481L129.313 60.4349L130.937 54.1029C131.122 53.4817 131.49 53.1711 132.044 53.1711H133.842L130.592 63.5036Z" fill="#00ADEE"/>
<path d="M140.652 60.3188H142.381C142.126 61.406 141.643 62.2361 140.929 62.8056C140.215 63.4018 139.316 63.6999 138.232 63.6999C136.918 63.6999 135.892 63.2215 135.154 62.2629C134.417 61.331 134.047 59.9975 134.047 58.2623C134.047 56.5272 134.404 55.3097 135.118 54.3778C135.856 53.4192 136.88 52.9408 138.196 52.9408C139.579 52.9408 140.651 53.4067 141.411 54.3385C142.149 55.2972 142.519 56.6307 142.519 58.3391V58.7657C142.519 58.8961 142.506 58.9853 142.485 59.0371H136.504C136.527 59.8404 136.699 60.4349 137.022 60.824C137.322 61.2382 137.77 61.4453 138.37 61.4453C138.761 61.4453 139.097 61.3542 139.373 61.1739C139.441 61.1489 139.506 61.1025 139.563 61.0383C139.621 60.974 139.683 60.9026 139.753 60.824C139.777 60.7455 139.863 60.6437 140.012 60.5134C140.161 60.3849 140.374 60.3188 140.651 60.3188H140.652ZM136.504 57.2876H140.03C139.983 56.5879 139.822 56.0702 139.545 55.7345C139.246 55.3722 138.818 55.1901 138.266 55.1901C137.758 55.1901 137.343 55.3722 137.022 55.7345C136.699 56.0969 136.527 56.6146 136.504 57.2876Z" fill="#00ADEE"/>
<path d="M143.003 50.1416H144.249C144.572 50.1416 144.848 50.2648 145.078 50.5112C145.307 50.7575 145.424 51.061 145.424 51.4234V63.5036H143.003V50.1416Z" fill="#00ADEE"/>
<path d="M5.18612 67.9468V73.1559H4.05918V67.9468H2.03857V67.1721H7.20492V67.9468H5.18432H5.18612Z" fill="white"/>
<path d="M13.2057 71.2405H12.1828V73.1542H11.0613V67.1721H13.5197C14.216 67.2364 14.8046 67.4345 15.2855 67.7665C15.8598 68.1646 16.1469 68.6448 16.1469 69.2018C16.1469 69.7588 15.8598 70.2461 15.2855 70.646C14.8889 70.9209 14.5857 71.0745 14.3757 71.1102L16.2976 73.1559H14.9392L13.2057 71.2423V71.2405ZM12.1828 67.9504V70.4639H13.2057C13.7046 70.4639 14.1317 70.3408 14.487 70.0962C14.8423 69.8498 15.0199 69.5535 15.0199 69.2036C15.0199 68.8537 14.8423 68.5609 14.487 68.3182C14.1317 68.0736 13.7046 67.9522 13.2057 67.9522H12.1828V67.9504Z" fill="white"/>
<path d="M23.393 67.1739L26.5441 73.1559H25.3526L24.2364 71.0387H21.9413L20.8305 73.1559H19.6335L22.7847 67.1739H23.3912H23.393ZM23.8309 70.2658L23.0897 68.8626L22.354 70.2658H23.8327H23.8309Z" fill="white"/>
<path d="M32.7065 73.1559L29.5608 67.1739H30.7523L33.0098 71.4636L35.2727 67.1739H36.4696L33.3131 73.1559H32.7065Z" fill="white"/>
<path d="M44.9934 67.1739V67.9486H41.4457V69.7766H44.9934V70.5514H41.4457V72.3794H44.9934V73.1577H40.3259V67.1757H44.9934V67.1739Z" fill="white"/>
<path d="M49.2554 73.1559V67.1739H50.3769V72.3794H53.4742V73.1577H49.2554V73.1559Z" fill="white"/>
<path d="M66.6224 67.9468V73.1559H65.4955V67.9468H63.4749V67.1721H68.6412V67.9468H66.6206H66.6224Z" fill="white"/>
<path d="M73.6191 70.6799V73.1559H72.4976V67.1739H73.6191V69.907H76.2947V67.1739H77.4163V73.1559H76.2947V70.6799H73.6191Z" fill="white"/>
<path d="M86.4802 67.1739V67.9486H82.9325V69.7766H86.4802V70.5514H82.9325V72.3794H86.4802V73.1577H81.8127V67.1757H86.4802V67.1739Z" fill="white"/>
<path d="M100.402 72.0384V67.1739H101.524V72.0384C101.56 72.0813 101.621 72.1331 101.708 72.1955C101.944 72.3508 102.222 72.4276 102.543 72.4276C102.864 72.4276 103.142 72.3491 103.377 72.1902C103.612 72.0313 103.729 71.8421 103.729 71.6207V67.1757H104.856V71.6511C104.842 72.0724 104.616 72.433 104.179 72.7347C103.727 73.0488 103.184 73.2059 102.545 73.2059C101.906 73.2059 101.384 73.0506 100.969 72.7418C100.551 73.0506 100.023 73.2059 99.3882 73.2059C98.7529 73.2059 98.2056 73.0488 97.7588 72.7347C97.3174 72.4347 97.093 72.0741 97.0823 71.6511V67.1757H98.2038V71.6207C98.2038 71.8421 98.3205 72.0331 98.5556 72.1902C98.7906 72.3491 99.0688 72.4276 99.39 72.4276C99.7112 72.4276 99.9929 72.3508 100.224 72.1955C100.314 72.1331 100.377 72.0813 100.409 72.0384H100.402Z" fill="white"/>
<path d="M116.443 67.9915C117.31 68.5895 117.742 69.3107 117.742 70.1569C117.742 71.003 117.31 71.7242 116.443 72.3223C115.576 72.9203 114.532 73.2202 113.308 73.2202C112.084 73.2202 111.04 72.9203 110.173 72.3223C109.306 71.7242 108.874 71.003 108.874 70.1569C108.874 69.3107 109.306 68.5895 110.173 67.9915C111.04 67.3934 112.084 67.0935 113.308 67.0935C114.532 67.0935 115.576 67.3934 116.443 67.9915ZM113.306 67.8754C112.393 67.8754 111.614 68.0986 110.97 68.5431C110.326 68.9876 110.003 69.5267 110.003 70.1569C110.003 70.787 110.326 71.3262 110.972 71.7724C111.618 72.2187 112.396 72.4419 113.306 72.4419C114.216 72.4419 114.998 72.2187 115.643 71.7724C116.287 71.3262 116.61 70.787 116.61 70.1569C116.61 69.5267 116.287 68.9876 115.643 68.5431C114.998 68.0986 114.22 67.8754 113.306 67.8754Z" fill="white"/>
<path d="M124.154 71.2405H123.131V73.1542H122.01V67.1721H124.468C125.164 67.2364 125.753 67.4345 126.234 67.7665C126.808 68.1646 127.095 68.6448 127.095 69.2018C127.095 69.7588 126.808 70.2461 126.234 70.646C125.837 70.9209 125.534 71.0745 125.324 71.1102L127.246 73.1559H125.886L124.152 71.2423L124.154 71.2405ZM123.129 67.9504V70.4639H124.152C124.651 70.4639 125.078 70.3408 125.433 70.0962C125.789 69.8498 125.966 69.5535 125.966 69.2036C125.966 68.8537 125.789 68.5609 125.433 68.3182C125.078 68.0736 124.651 67.9522 124.152 67.9522H123.129V67.9504Z" fill="white"/>
<path d="M131.122 73.1559V67.1739H132.244V72.3794H135.341V73.1577H131.122V73.1559Z" fill="white"/>
<path d="M140.236 67.1739C141.645 67.1792 142.741 67.4541 143.529 68.0004C144.392 68.602 144.823 69.3232 144.823 70.1658C144.823 71.0084 144.392 71.7332 143.529 72.3312C142.741 72.8775 141.645 73.1524 140.236 73.1577H139.413V67.1757H140.236V67.1739ZM140.534 67.9611V72.3705C141.426 72.3705 142.156 72.1723 142.727 71.776C143.369 71.3315 143.691 70.796 143.691 70.164C143.691 69.5321 143.369 68.9983 142.727 68.552C142.156 68.1575 141.426 67.9611 140.534 67.9611Z" fill="white"/>
<path d="M24.6222 29.9461C30.1546 29.4052 33.0438 28.7536 33.0438 28.7536C36.2541 28.0288 39.1756 27.3255 41.7686 26.6739C31.3103 18.4479 20.8538 10.2219 10.3972 1.99761C9.37439 1.1925 7.97468 1.05326 6.81005 1.64058L1.54321 4.29868L16.7336 26.0777C17.0387 26.6453 18.1477 28.5448 20.5272 29.5105C22.1386 30.1639 23.6011 30.0443 24.6168 29.9443L24.6222 29.9461Z" fill="#114684"/>
<path style="mix-blend-mode:multiply" d="M24.6221 29.9461C25.6037 29.8497 26.3538 29.814 26.605 29.7783C30.1815 29.2677 41.205 26.8006 41.7685 26.6739C42.2853 26.5579 36.5178 27.7379 29.7687 26.3436C21.349 24.6031 15.5958 19.2762 10.6269 14.674C8.11457 12.348 4.83244 8.94188 1.54492 4.29868C6.60898 11.5589 11.673 18.8192 16.7353 26.0777C17.0404 26.6453 18.1494 28.5447 20.5289 29.5105C22.1403 30.1639 23.6028 30.0443 24.6185 29.9443L24.6221 29.9461Z" fill="url(#paint0_linear_57_1055)"/>
<path d="M101.646 8.92582C101.857 9.17753 101.71 9.57026 101.382 9.61132C101.38 9.61132 101.378 9.61132 101.376 9.61132C99.4617 9.8309 91.1496 10.7949 88.221 11.2947C77.5653 13.112 71.8247 16.9412 52.9017 22.9572C49.4599 24.0515 46.0629 25.3065 44.3994 25.8349C46.813 24.5281 51.4195 22.0396 56.2682 19.2226C69.3124 11.6464 78.9004 4.68249 87.0976 4.3201C92.0271 4.10231 96.2693 5.63577 96.2693 5.63577C96.944 5.8607 97.7085 6.16953 98.5214 6.59261C99.1225 6.9068 99.6537 7.23349 100.115 7.54946C100.479 7.80117 100.888 8.12428 101.297 8.53844C101.394 8.63662 101.52 8.77944 101.646 8.9276V8.92582Z" fill="#114684"/>
<path style="mix-blend-mode:multiply" d="M129.471 28.1859C129.537 28.202 130.095 28.0467 130.174 27.8164C130.187 27.7771 130.194 27.7343 130.194 27.7343C130.221 27.5593 130.153 27.4201 130.126 27.3648C129.55 26.183 128.588 25.1726 128.588 25.1726C127.653 24.1907 127.651 24.0926 127.224 23.6695C124.43 20.9043 119.226 18.8906 119.226 18.8906C117.62 18.1265 114.648 17.2215 110.386 16.6324C104.134 15.7666 99.1637 16.3878 97.2544 16.6538C85.8216 18.2462 73.3355 22.5573 69.4056 23.8944C49.3521 30.7173 39.0607 34.1359 26.0775 34.5786C18.6914 34.8303 12.6063 34.077 8.6189 33.4004C9.88402 34.0341 11.7054 34.8607 13.9773 35.6069C15.3985 36.0728 20.0121 37.4956 27.6908 37.6241C29.1461 37.6491 33.3775 37.6705 40.4748 36.6048C46.524 35.6961 50.5634 34.6125 60.5462 31.9455C60.5462 31.9455 68.1548 29.8961 74.6527 28.3627C75.4495 28.1752 76.248 27.9931 76.248 27.9931C76.248 27.9931 76.4293 27.9574 76.6087 27.911C82.5557 26.4043 94.2809 24.0194 107.442 24.3121C112.744 24.43 120.299 26.0562 129.469 28.1842L129.471 28.1859Z" fill="url(#paint1_linear_57_1055)"/>
<path d="M145.214 45.3128C145.767 46.2571 144.785 47.3514 143.78 46.9105C136.105 43.5365 126.858 40.1233 116.17 37.4134C103.587 34.2216 92.2692 32.8309 82.9719 32.2936C98.5822 29.7426 111.129 30.487 119.423 31.5849C130.793 33.0916 136.663 35.5908 141.126 40.0216C142.91 41.7924 144.232 43.6365 145.212 45.311L145.214 45.3128Z" fill="#114684"/>
<path style="mix-blend-mode:multiply" d="M145.018 46.6963C144.913 46.9301 144.541 46.9926 144.249 47.0105C143.762 46.8141 142.036 46.1179 141.541 45.9179C139.204 44.9754 138.036 44.5041 137.543 44.3077C134.937 43.2723 132.85 42.5261 131.802 42.1566C127.894 40.782 124.89 39.8609 124.265 39.6699C120.839 38.6256 118.01 37.8758 116.17 37.4099C113.204 36.6583 107.025 35.1802 99.0866 33.9877C97.0247 33.6789 94.0943 33.2433 90.2415 32.8827C87.3488 32.6114 82.9702 32.2936 82.9702 32.2918C83.0761 32.2972 96.6227 32.556 103.697 32.8827C111.709 33.254 115.716 33.429 120.394 34.3876C127.705 35.8871 132.333 38.0204 134.112 38.8898C139.326 41.4372 145.524 45.5663 145.015 46.6945L145.018 46.6963Z" fill="url(#paint2_linear_57_1055)"/>
<path style="mix-blend-mode:multiply" d="M93.565 10.5503C91.9302 10.6806 89.4592 10.9484 86.5001 11.55C83.0026 12.2623 80.1691 13.1692 73.7879 15.5041C66.8809 18.0301 68.1693 17.7106 63.4157 19.4101C56.9214 21.7308 56.1642 21.7397 47.8395 24.687C45.5874 25.485 44.43 25.9116 44.3977 25.8349C44.3133 25.6314 52.0637 22.543 61.9012 17.9998C76.6663 11.1787 80.1745 8.44919 88.1367 7.58517C92.456 7.11567 96.0306 7.42093 98.2271 7.71013C101.123 8.66162 101.775 9.05436 101.741 9.22752C101.737 9.24715 101.694 9.4221 101.545 9.53278C101.454 9.60062 101.357 9.61847 101.321 9.62561C101.082 9.66667 97.9041 10.0451 93.5632 10.5503H93.565Z" fill="url(#paint3_linear_57_1055)"/>
<path d="M12.7374 44.5416H17.0118V63.0109H12.3838L6.31306 52.241V63.0109H2.03857V44.5916H6.69349L12.7391 55.3365V44.5416H12.7374Z" fill="#114684"/>
<path d="M30.9998 48.7938H23.3607V51.5876H29.5571V55.8399H23.3607V58.7586H30.9998V63.0109H19.0862V44.5666L30.9998 44.5416V48.7938Z" fill="#114684"/>
<path d="M51.4105 44.4148H55.8878L50.3984 63.0091H46.1742L43.7211 53.7494L41.5964 63.0091H37.347L31.1758 44.4148H35.6782L39.1182 54.7063L41.4708 44.4148H45.6699L48.4011 54.6563L51.4105 44.4148Z" fill="#114684"/>
<path d="M60.6683 63.0091H56.3938V44.5148H60.6683V63.0091Z" fill="#114684"/>
<path d="M73.1884 51.8875C73.9816 52.4748 74.6043 53.1836 75.0601 54.0137C75.5159 54.8438 75.7438 55.7453 75.7438 56.7182C75.7438 57.5911 75.5572 58.4087 75.1875 59.171C74.816 59.935 74.3064 60.6009 73.6568 61.1722C73.0072 61.7434 72.2535 62.1915 71.3921 62.5182C70.5326 62.8449 69.612 63.0091 68.6358 63.0091H63.1985V44.4648L68.1316 44.4898C68.9068 44.4898 69.6407 44.6237 70.3316 44.8915C71.0225 45.1593 71.629 45.5252 72.153 45.9858C72.6752 46.4464 73.0844 46.9837 73.3805 47.596C73.6747 48.2083 73.8237 48.867 73.8237 49.5704C73.8237 50.4094 73.6119 51.1806 73.192 51.8857L73.1884 51.8875ZM67.473 48.7171V50.4273H68.1567C68.5784 50.4112 68.9157 50.3077 69.1688 50.1202C69.4218 49.9328 69.5474 49.7453 69.5474 49.5579C69.5474 49.3883 69.4218 49.2044 69.1688 49.0081C68.9157 48.8117 68.5694 48.7135 68.1316 48.7135H67.4748L67.473 48.7171ZM68.6358 58.7568C69.0073 58.7568 69.3644 58.7015 69.7107 58.5926C70.0553 58.4837 70.3603 58.3355 70.6205 58.1499C70.8825 57.9642 71.0889 57.7482 71.2396 57.5036C71.3921 57.2591 71.4675 57.002 71.4675 56.7307C71.4675 56.4593 71.3921 56.1987 71.2396 55.9452C71.0871 55.6917 70.8807 55.4721 70.6205 55.2865C70.3585 55.1008 70.0553 54.9527 69.7107 54.8438C69.3644 54.7349 69.0073 54.6795 68.6358 54.6795H67.473V58.755H68.6358V58.7568Z" fill="#114684"/>
<path d="M88.9207 48.7938H81.2816V51.5876H87.478V55.8399H81.2816V58.7586H88.9207V63.0109H77.0071V44.5666L88.9207 44.5416V48.7938Z" fill="#114684"/>
<path d="M96.7359 58.2284C96.517 58.2623 96.2963 58.2873 96.0773 58.3034C95.8584 58.3195 95.6305 58.3373 95.3936 58.3534V63.0091H91.1191V44.6166H95.3936C96.456 44.6326 97.4501 44.8254 98.3779 45.195C99.3056 45.5645 100.119 46.0572 100.818 46.6766C101.518 47.2961 102.066 48.0173 102.462 48.8385C102.859 49.6596 103.056 50.5379 103.056 51.4769C103.056 52.4659 102.844 53.3817 102.424 54.2297C102.003 55.0758 101.412 55.8077 100.653 56.429L104.75 63.0127H99.7166L96.7323 58.232L96.7359 58.2284ZM95.3954 54.0779C95.8512 54.0619 96.2855 53.9815 96.6982 53.8387C97.111 53.6959 97.4734 53.5085 97.7857 53.2728C98.0979 53.039 98.342 52.7658 98.5196 52.4552C98.6973 52.1446 98.7852 51.8143 98.7852 51.4609C98.7852 51.1074 98.6973 50.7807 98.5196 50.479C98.342 50.1773 98.0979 49.9096 97.7857 49.6739C97.4734 49.4383 97.111 49.2508 96.6982 49.108C96.2855 48.9652 95.8512 48.8867 95.3954 48.8688V54.0779Z" fill="#114684"/>
<path style="mix-blend-mode:multiply" d="M130.194 27.7343C130.162 27.7985 130.112 27.8824 130.031 27.9592C129.819 28.1609 129.557 28.1823 129.471 28.1859C127.294 27.6664 125.069 27.1612 122.794 26.6757C120.782 26.2454 118.801 25.8438 116.85 25.4671C116.152 25.3207 115.133 25.1208 113.893 24.9298C113.893 24.9298 110.351 24.4871 106.681 24.2728C94.9951 23.5909 79.0887 26.9774 55.0281 33.37C53.562 33.7592 44.4603 36.3905 34.7162 37.3438C33.2555 37.4866 28.9738 37.8669 23.4899 37.4116C19.28 37.0635 16.7462 36.4191 16.1145 36.2549C12.9365 35.4265 10.4008 34.3108 8.6189 33.3986C12.2886 34.3304 17.787 35.4605 24.5181 35.7996C40.2702 36.5905 69.411 26.9077 69.411 26.9077C77.0178 24.3728 94.839 18.0926 107.469 19.4493C108.938 19.6064 110.372 19.8474 110.372 19.8474C119.372 21.3595 126.043 24.9744 130.198 27.7307L130.194 27.7343Z" fill="url(#paint4_linear_57_1055)"/>
<defs>
<linearGradient id="paint0_linear_57_1055" x1="4.19539" y1="1.66199" x2="35.4014" y2="33.0311" gradientUnits="userSpaceOnUse">
<stop stop-color="#114684"/>
<stop offset="1" stop-color="white"/>
</linearGradient>
<linearGradient id="paint1_linear_57_1055" x1="8.6189" y1="26.9095" x2="130.201" y2="26.9095" gradientUnits="userSpaceOnUse">
<stop stop-color="#00ADEE"/>
<stop offset="1" stop-color="white"/>
</linearGradient>
<linearGradient id="paint2_linear_57_1055" x1="114.01" y1="32.2918" x2="114.01" y2="47.0105" gradientUnits="userSpaceOnUse">
<stop stop-color="#114684"/>
<stop offset="1" stop-color="white"/>
</linearGradient>
<linearGradient id="paint3_linear_57_1055" x1="73.0719" y1="7.3406" x2="73.0719" y2="25.8438" gradientUnits="userSpaceOnUse">
<stop stop-color="#114684"/>
<stop offset="1" stop-color="white"/>
</linearGradient>
<linearGradient id="paint4_linear_57_1055" x1="69.4085" y1="19.2623" x2="69.4084" y2="37.6302" gradientUnits="userSpaceOnUse">
<stop stop-color="#00ADEE"/>
<stop offset="1" stop-color="white"/>
</linearGradient>
</defs>
</svg>
